<svg width="1291" height="235" viewBox="0 0 1291 235" fill="none" xmlns="http://www.w3.org/2000/svg">
<g style="mix-blend-mode:hard-light">
<path d="M128.4 177V65H142V114.12H215.12V65H228.72V177H215.12V126.92H142V177H128.4ZM312.183 178.6C301.303 178.6 291.223 176.2 281.943 171.4C272.769 166.6 265.463 159.827 260.023 151.08C254.583 142.227 251.863 132.2 251.863 121C251.863 109.8 254.583 99.8267 260.023 91.08C265.463 82.2267 272.769 75.4 281.943 70.6C291.223 65.8 301.303 63.4 312.183 63.4C323.063 63.4 333.089 65.8 342.263 70.6C351.543 75.4 358.903 82.2267 364.343 91.08C369.783 99.8267 372.503 109.8 372.503 121C372.503 132.2 369.783 142.227 364.343 151.08C358.903 159.827 351.543 166.6 342.263 171.4C333.089 176.2 323.063 178.6 312.183 178.6ZM312.183 165.8C320.716 165.8 328.503 163.933 335.543 160.2C342.689 156.467 348.343 151.187 352.503 144.36C356.769 137.533 358.903 129.747 358.903 121C358.903 112.253 356.769 104.467 352.503 97.64C348.343 90.8133 342.689 85.5333 335.543 81.8C328.503 78.0667 320.716 76.2 312.183 76.2C303.649 76.2 295.809 78.0667 288.663 81.8C281.623 85.5333 275.969 90.8133 271.703 97.64C267.543 104.467 265.463 112.253 265.463 121C265.463 129.747 267.543 137.533 271.703 144.36C275.969 151.187 281.623 156.467 288.663 160.2C295.809 163.933 303.649 165.8 312.183 165.8ZM425.438 177V77.8H383.038V65H481.438V77.8H439.038V177H425.438ZM488.581 137.48V125.48H546.661V137.48H488.581ZM569.806 177V65H583.406V164.2H648.366V177H569.806ZM665.9 177V65H747.98V77.8H679.5V114.12H744.3V126.92H679.5V164.2H747.98V177H665.9ZM758.394 177L807.354 65H826.714L875.674 177H860.954L818.714 79.4H815.354L773.114 177H758.394ZM782.554 148.68V135.88H851.514V148.68H782.554ZM890.9 177V65H932.34C944.073 65 954.633 67.4 964.02 72.2C973.407 77 980.713 83.6667 985.94 92.2C991.273 100.627 993.94 110.227 993.94 121C993.94 131.773 991.273 141.427 985.94 149.96C980.713 158.387 973.407 165 964.02 169.8C954.633 174.6 944.073 177 932.34 177H890.9ZM932.34 164.2C941.3 164.2 949.407 162.387 956.66 158.76C964.02 155.133 969.78 150.067 973.94 143.56C978.207 136.947 980.34 129.427 980.34 121C980.34 112.573 978.207 105.107 973.94 98.6C969.78 91.9867 964.02 86.8667 956.66 83.24C949.407 79.6133 941.3 77.8 932.34 77.8H904.5V164.2H932.34ZM1059.87 178.6C1049.42 178.6 1040.46 177.107 1032.99 174.12C1025.63 171.133 1020.08 167.08 1016.35 161.96C1012.62 156.733 1010.75 150.813 1010.75 144.2H1024.35C1024.35 148.147 1025.63 151.773 1028.19 155.08C1030.75 158.387 1034.7 161 1040.03 162.92C1045.36 164.84 1051.98 165.8 1059.87 165.8C1070.96 165.8 1079.07 164.093 1084.19 160.68C1089.42 157.267 1092.03 152.68 1092.03 146.92C1092.03 141.907 1090.16 138.013 1086.43 135.24C1082.8 132.467 1076.88 130.333 1068.67 128.84L1045.31 124.36C1038.38 122.973 1032.56 121.053 1027.87 118.6C1023.18 116.04 1019.6 112.84 1017.15 109C1014.7 105.16 1013.47 100.52 1013.47 95.08C1013.47 89.2133 1015.18 83.88 1018.59 79.08C1022 74.28 1027.02 70.4933 1033.63 67.72C1040.24 64.84 1048.14 63.4 1057.31 63.4C1067.23 63.4 1075.76 64.8933 1082.91 67.88C1090.06 70.8667 1095.44 74.9733 1099.07 80.2C1102.8 85.32 1104.67 91.1867 1104.67 97.8H1091.07C1091.07 93.8533 1089.79 90.28 1087.23 87.08C1084.78 83.7733 1080.99 81.16 1075.87 79.24C1070.86 77.2133 1064.67 76.2 1057.31 76.2C1047.28 76.2 1039.71 77.9067 1034.59 81.32C1029.58 84.6267 1027.07 89.2133 1027.07 95.08C1027.07 99.6667 1028.83 103.347 1032.35 106.12C1035.98 108.787 1041.68 110.867 1049.47 112.36L1069.31 116.04C1077.84 117.64 1084.78 119.773 1090.11 122.44C1095.44 125.107 1099.34 128.467 1101.79 132.52C1104.35 136.467 1105.63 141.267 1105.63 146.92C1105.63 153.107 1103.87 158.6 1100.35 163.4C1096.94 168.2 1091.76 171.933 1084.83 174.6C1078 177.267 1069.68 178.6 1059.87 178.6Z" fill="url(#paint0_linear_1704_776)"/>
</g>
<g style="mix-blend-mode:hard-light">
<path d="M128.4 177V65H142V114.12H215.12V65H228.72V177H215.12V126.92H142V177H128.4ZM312.183 178.6C301.303 178.6 291.223 176.2 281.943 171.4C272.769 166.6 265.463 159.827 260.023 151.08C254.583 142.227 251.863 132.2 251.863 121C251.863 109.8 254.583 99.8267 260.023 91.08C265.463 82.2267 272.769 75.4 281.943 70.6C291.223 65.8 301.303 63.4 312.183 63.4C323.063 63.4 333.089 65.8 342.263 70.6C351.543 75.4 358.903 82.2267 364.343 91.08C369.783 99.8267 372.503 109.8 372.503 121C372.503 132.2 369.783 142.227 364.343 151.08C358.903 159.827 351.543 166.6 342.263 171.4C333.089 176.2 323.063 178.6 312.183 178.6ZM312.183 165.8C320.716 165.8 328.503 163.933 335.543 160.2C342.689 156.467 348.343 151.187 352.503 144.36C356.769 137.533 358.903 129.747 358.903 121C358.903 112.253 356.769 104.467 352.503 97.64C348.343 90.8133 342.689 85.5333 335.543 81.8C328.503 78.0667 320.716 76.2 312.183 76.2C303.649 76.2 295.809 78.0667 288.663 81.8C281.623 85.5333 275.969 90.8133 271.703 97.64C267.543 104.467 265.463 112.253 265.463 121C265.463 129.747 267.543 137.533 271.703 144.36C275.969 151.187 281.623 156.467 288.663 160.2C295.809 163.933 303.649 165.8 312.183 165.8ZM425.438 177V77.8H383.038V65H481.438V77.8H439.038V177H425.438ZM488.581 137.48V125.48H546.661V137.48H488.581ZM569.806 177V65H583.406V164.2H648.366V177H569.806ZM665.9 177V65H747.98V77.8H679.5V114.12H744.3V126.92H679.5V164.2H747.98V177H665.9ZM758.394 177L807.354 65H826.714L875.674 177H860.954L818.714 79.4H815.354L773.114 177H758.394ZM782.554 148.68V135.88H851.514V148.68H782.554ZM890.9 177V65H932.34C944.073 65 954.633 67.4 964.02 72.2C973.407 77 980.713 83.6667 985.94 92.2C991.273 100.627 993.94 110.227 993.94 121C993.94 131.773 991.273 141.427 985.94 149.96C980.713 158.387 973.407 165 964.02 169.8C954.633 174.6 944.073 177 932.34 177H890.9ZM932.34 164.2C941.3 164.2 949.407 162.387 956.66 158.76C964.02 155.133 969.78 150.067 973.94 143.56C978.207 136.947 980.34 129.427 980.34 121C980.34 112.573 978.207 105.107 973.94 98.6C969.78 91.9867 964.02 86.8667 956.66 83.24C949.407 79.6133 941.3 77.8 932.34 77.8H904.5V164.2H932.34ZM1059.87 178.6C1049.42 178.6 1040.46 177.107 1032.99 174.12C1025.63 171.133 1020.08 167.08 1016.35 161.96C1012.62 156.733 1010.75 150.813 1010.75 144.2H1024.35C1024.35 148.147 1025.63 151.773 1028.19 155.08C1030.75 158.387 1034.7 161 1040.03 162.92C1045.36 164.84 1051.98 165.8 1059.87 165.8C1070.96 165.8 1079.07 164.093 1084.19 160.68C1089.42 157.267 1092.03 152.68 1092.03 146.92C1092.03 141.907 1090.16 138.013 1086.43 135.24C1082.8 132.467 1076.88 130.333 1068.67 128.84L1045.31 124.36C1038.38 122.973 1032.56 121.053 1027.87 118.6C1023.18 116.04 1019.6 112.84 1017.15 109C1014.7 105.16 1013.47 100.52 1013.47 95.08C1013.47 89.2133 1015.18 83.88 1018.59 79.08C1022 74.28 1027.02 70.4933 1033.63 67.72C1040.24 64.84 1048.14 63.4 1057.31 63.4C1067.23 63.4 1075.76 64.8933 1082.91 67.88C1090.06 70.8667 1095.44 74.9733 1099.07 80.2C1102.8 85.32 1104.67 91.1867 1104.67 97.8H1091.07C1091.07 93.8533 1089.79 90.28 1087.23 87.08C1084.78 83.7733 1080.99 81.16 1075.87 79.24C1070.86 77.2133 1064.67 76.2 1057.31 76.2C1047.28 76.2 1039.71 77.9067 1034.59 81.32C1029.58 84.6267 1027.07 89.2133 1027.07 95.08C1027.07 99.6667 1028.83 103.347 1032.35 106.12C1035.98 108.787 1041.68 110.867 1049.47 112.36L1069.31 116.04C1077.84 117.64 1084.78 119.773 1090.11 122.44C1095.44 125.107 1099.34 128.467 1101.79 132.52C1104.35 136.467 1105.63 141.267 1105.63 146.92C1105.63 153.107 1103.87 158.6 1100.35 163.4C1096.94 168.2 1091.76 171.933 1084.83 174.6C1078 177.267 1069.68 178.6 1059.87 178.6Z" fill="url(#paint1_linear_1704_776)"/>
</g>
<g style="mix-blend-mode:hard-light">
<path d="M128.4 177V65H142V114.12H215.12V65H228.72V177H215.12V126.92H142V177H128.4ZM312.183 178.6C301.303 178.6 291.223 176.2 281.943 171.4C272.769 166.6 265.463 159.827 260.023 151.08C254.583 142.227 251.863 132.2 251.863 121C251.863 109.8 254.583 99.8267 260.023 91.08C265.463 82.2267 272.769 75.4 281.943 70.6C291.223 65.8 301.303 63.4 312.183 63.4C323.063 63.4 333.089 65.8 342.263 70.6C351.543 75.4 358.903 82.2267 364.343 91.08C369.783 99.8267 372.503 109.8 372.503 121C372.503 132.2 369.783 142.227 364.343 151.08C358.903 159.827 351.543 166.6 342.263 171.4C333.089 176.2 323.063 178.6 312.183 178.6ZM312.183 165.8C320.716 165.8 328.503 163.933 335.543 160.2C342.689 156.467 348.343 151.187 352.503 144.36C356.769 137.533 358.903 129.747 358.903 121C358.903 112.253 356.769 104.467 352.503 97.64C348.343 90.8133 342.689 85.5333 335.543 81.8C328.503 78.0667 320.716 76.2 312.183 76.2C303.649 76.2 295.809 78.0667 288.663 81.8C281.623 85.5333 275.969 90.8133 271.703 97.64C267.543 104.467 265.463 112.253 265.463 121C265.463 129.747 267.543 137.533 271.703 144.36C275.969 151.187 281.623 156.467 288.663 160.2C295.809 163.933 303.649 165.8 312.183 165.8ZM425.438 177V77.8H383.038V65H481.438V77.8H439.038V177H425.438ZM488.581 137.48V125.48H546.661V137.48H488.581ZM569.806 177V65H583.406V164.2H648.366V177H569.806ZM665.9 177V65H747.98V77.8H679.5V114.12H744.3V126.92H679.5V164.2H747.98V177H665.9ZM758.394 177L807.354 65H826.714L875.674 177H860.954L818.714 79.4H815.354L773.114 177H758.394ZM782.554 148.68V135.88H851.514V148.68H782.554ZM890.9 177V65H932.34C944.073 65 954.633 67.4 964.02 72.2C973.407 77 980.713 83.6667 985.94 92.2C991.273 100.627 993.94 110.227 993.94 121C993.94 131.773 991.273 141.427 985.94 149.96C980.713 158.387 973.407 165 964.02 169.8C954.633 174.6 944.073 177 932.34 177H890.9ZM932.34 164.2C941.3 164.2 949.407 162.387 956.66 158.76C964.02 155.133 969.78 150.067 973.94 143.56C978.207 136.947 980.34 129.427 980.34 121C980.34 112.573 978.207 105.107 973.94 98.6C969.78 91.9867 964.02 86.8667 956.66 83.24C949.407 79.6133 941.3 77.8 932.34 77.8H904.5V164.2H932.34ZM1059.87 178.6C1049.42 178.6 1040.46 177.107 1032.99 174.12C1025.63 171.133 1020.08 167.08 1016.35 161.96C1012.62 156.733 1010.75 150.813 1010.75 144.2H1024.35C1024.35 148.147 1025.63 151.773 1028.19 155.08C1030.75 158.387 1034.7 161 1040.03 162.92C1045.36 164.84 1051.98 165.8 1059.87 165.8C1070.96 165.8 1079.07 164.093 1084.19 160.68C1089.42 157.267 1092.03 152.68 1092.03 146.92C1092.03 141.907 1090.16 138.013 1086.43 135.24C1082.8 132.467 1076.88 130.333 1068.67 128.84L1045.31 124.36C1038.38 122.973 1032.56 121.053 1027.87 118.6C1023.18 116.04 1019.6 112.84 1017.15 109C1014.7 105.16 1013.47 100.52 1013.47 95.08C1013.47 89.2133 1015.18 83.88 1018.59 79.08C1022 74.28 1027.02 70.4933 1033.63 67.72C1040.24 64.84 1048.14 63.4 1057.31 63.4C1067.23 63.4 1075.76 64.8933 1082.91 67.88C1090.06 70.8667 1095.44 74.9733 1099.07 80.2C1102.8 85.32 1104.67 91.1867 1104.67 97.8H1091.07C1091.07 93.8533 1089.79 90.28 1087.23 87.08C1084.78 83.7733 1080.99 81.16 1075.87 79.24C1070.86 77.2133 1064.67 76.2 1057.31 76.2C1047.28 76.2 1039.71 77.9067 1034.59 81.32C1029.58 84.6267 1027.07 89.2133 1027.07 95.08C1027.07 99.6667 1028.83 103.347 1032.35 106.12C1035.98 108.787 1041.68 110.867 1049.47 112.36L1069.31 116.04C1077.84 117.64 1084.78 119.773 1090.11 122.44C1095.44 125.107 1099.34 128.467 1101.79 132.52C1104.35 136.467 1105.63 141.267 1105.63 146.92C1105.63 153.107 1103.87 158.6 1100.35 163.4C1096.94 168.2 1091.76 171.933 1084.83 174.6C1078 177.267 1069.68 178.6 1059.87 178.6Z" fill="#00CF3C"/>
</g>
<path d="M1150.39 108.055V82.25H1163.3C1164.85 82.25 1166.23 82.5941 1167.46 83.2822C1168.71 83.9457 1169.68 84.8796 1170.36 86.0839C1171.08 87.2881 1171.43 88.6643 1171.43 90.2126C1171.43 91.7609 1171.08 93.1372 1170.36 94.3414C1169.68 95.5456 1168.71 96.4918 1167.46 97.1799C1166.23 97.8435 1164.85 98.1752 1163.3 98.1752H1159.7V97.438L1172.06 108.055H1167.79L1156.32 98.1752H1153.52V108.055H1150.39ZM1163.3 95.2261C1164.28 95.2261 1165.15 95.0295 1165.91 94.6363C1166.67 94.2185 1167.26 93.6287 1167.68 92.8668C1168.1 92.105 1168.3 91.2202 1168.3 90.2126C1168.3 89.205 1168.1 88.3203 1167.68 87.5584C1167.26 86.7966 1166.67 86.219 1165.91 85.8258C1165.15 85.408 1164.28 85.1991 1163.3 85.1991H1153.52V95.2261H1163.3Z" fill="#00CF3C"/>
<path d="M1160.31 124.236C1154.75 124.236 1149.6 123.008 1144.86 120.55C1140.18 118.092 1136.44 114.625 1133.66 110.146C1130.89 105.613 1129.5 100.48 1129.5 94.7451C1129.5 89.0107 1130.89 83.9044 1133.66 79.4261C1136.44 74.8932 1140.18 71.3979 1144.86 68.9403C1149.6 66.4827 1154.75 65.2539 1160.31 65.2539C1165.86 65.2539 1170.99 66.4827 1175.67 68.9403C1180.41 71.3979 1184.17 74.8932 1186.95 79.4261C1189.73 83.9044 1191.12 89.0107 1191.12 94.7451C1191.12 100.48 1189.73 105.613 1186.95 110.146C1184.17 114.625 1180.41 118.092 1175.67 120.55C1170.99 123.008 1165.86 124.236 1160.31 124.236ZM1160.31 117.683C1164.67 117.683 1168.64 116.727 1172.24 114.816C1175.89 112.904 1178.78 110.201 1180.9 106.705C1183.08 103.21 1184.17 99.2236 1184.17 94.7451C1184.17 90.2668 1183.08 86.2801 1180.9 82.7848C1178.78 79.2895 1175.89 76.5862 1172.24 74.6747C1168.64 72.7633 1164.67 71.8075 1160.31 71.8075C1155.95 71.8075 1151.94 72.7633 1148.29 74.6747C1144.7 76.5862 1141.81 79.2895 1139.63 82.7848C1137.51 86.2801 1136.44 90.2668 1136.44 94.7451C1136.44 99.2236 1137.51 103.21 1139.63 106.705C1141.81 110.201 1144.7 112.904 1148.29 114.816C1151.94 116.727 1155.95 117.683 1160.31 117.683Z" fill="#00CF3C"/>
<path d="M55.9625 192V43.2H92.2825V55.2H68.7625V180H92.2825V192H55.9625Z" fill="#00CF3C"/>
<path d="M1235.04 43L1235.04 191.8L1198.72 191.8L1198.72 179.8L1222.24 179.8L1222.24 55L1198.72 55L1198.72 43L1235.04 43Z" fill="#00CF3C"/>
<path d="M127.56 56V28H138.04C140.413 28 142.453 28.3867 144.16 29.16C145.867 29.9067 147.173 31 148.08 32.44C149.013 33.8533 149.48 35.5733 149.48 37.6C149.48 39.5733 149.013 41.28 148.08 42.72C147.173 44.1333 145.867 45.2267 144.16 46C142.453 46.7733 140.413 47.16 138.04 47.16H129.2L130.52 45.76V56H127.56ZM130.52 46L129.2 44.56H137.96C140.76 44.56 142.88 43.96 144.32 42.76C145.787 41.5333 146.52 39.8133 146.52 37.6C146.52 35.36 145.787 33.6267 144.32 32.4C142.88 31.1733 140.76 30.56 137.96 30.56H129.2L130.52 29.16V46ZM149.994 56L162.794 28H165.714L178.514 56H175.394L163.634 29.72H164.834L153.074 56H149.994ZM155.034 48.52L155.914 46.12L172.194 46.12L173.074 48.52L155.034 48.52ZM183.146 56V28L193.626 28C195.999 28 198.039 28.3867 199.746 29.16C201.453 29.9067 202.759 31 203.666 32.44C204.599 33.8533 205.066 35.5733 205.066 37.6C205.066 39.5733 204.599 41.28 203.666 42.72C202.759 44.1333 201.453 45.2267 199.746 46C198.039 46.7467 195.999 47.12 193.626 47.12H184.786L186.106 45.76V56H183.146ZM202.266 56L195.066 45.84H198.266L205.506 56H202.266ZM186.106 46L184.786 44.6H193.546C196.346 44.6 198.466 43.9867 199.906 42.76C201.373 41.5333 202.106 39.8133 202.106 37.6C202.106 35.36 201.373 33.6267 199.906 32.4C198.466 31.1733 196.346 30.56 193.546 30.56H184.786L186.106 29.16V46ZM217.102 56V30.56H207.262V28L229.902 28V30.56L220.062 30.56V56H217.102ZM234.63 56V28H237.07L256.39 52.32H255.11V28H258.03V56H255.59L236.31 31.68H237.59V56H234.63ZM269.809 40.52H284.609V43.04H269.809V40.52ZM270.129 53.44L286.969 53.44V56L267.169 56V28L286.369 28V30.56L270.129 30.56V53.44ZM293.927 56V28H304.407C306.781 28 308.821 28.3867 310.527 29.16C312.234 29.9067 313.541 31 314.447 32.44C315.381 33.8533 315.847 35.5733 315.847 37.6C315.847 39.5733 315.381 41.28 314.447 42.72C313.541 44.1333 312.234 45.2267 310.527 46C308.821 46.7467 306.781 47.12 304.407 47.12H295.567L296.887 45.76V56H293.927ZM313.047 56L305.847 45.84H309.047L316.287 56H313.047ZM296.887 46L295.567 44.6H304.327C307.127 44.6 309.247 43.9867 310.687 42.76C312.154 41.5333 312.887 39.8133 312.887 37.6C312.887 35.36 312.154 33.6267 310.687 32.4C309.247 31.1733 307.127 30.56 304.327 30.56H295.567L296.887 29.16V46ZM330.553 56.24C328.473 56.24 326.473 55.9067 324.553 55.24C322.66 54.5467 321.193 53.6667 320.153 52.6L321.313 50.32C322.3 51.28 323.62 52.0933 325.273 52.76C326.953 53.4 328.713 53.72 330.553 53.72C332.313 53.72 333.74 53.5067 334.833 53.08C335.953 52.6267 336.767 52.0267 337.273 51.28C337.807 50.5333 338.073 49.7067 338.073 48.8C338.073 47.7067 337.753 46.8267 337.113 46.16C336.5 45.4933 335.687 44.9733 334.673 44.6C333.66 44.2 332.54 43.8533 331.313 43.56C330.087 43.2667 328.86 42.96 327.633 42.64C326.407 42.2933 325.273 41.84 324.233 41.28C323.22 40.72 322.393 39.9867 321.753 39.08C321.14 38.1467 320.833 36.9333 320.833 35.44C320.833 34.0533 321.193 32.7867 321.913 31.64C322.66 30.4667 323.793 29.5333 325.313 28.84C326.833 28.12 328.78 27.76 331.153 27.76C332.727 27.76 334.287 27.9867 335.833 28.44C337.38 28.8667 338.713 29.4667 339.833 30.24L338.833 32.6C337.633 31.8 336.353 31.2133 334.993 30.84C333.66 30.4667 332.367 30.28 331.113 30.28C329.433 30.28 328.047 30.5067 326.953 30.96C325.86 31.4133 325.047 32.0267 324.513 32.8C324.007 33.5467 323.753 34.4 323.753 35.36C323.753 36.4533 324.06 37.3333 324.673 38C325.313 38.6667 326.14 39.1867 327.153 39.56C328.193 39.9333 329.327 40.2667 330.553 40.56C331.78 40.8533 332.993 41.1733 334.193 41.52C335.42 41.8667 336.54 42.32 337.553 42.88C338.593 43.4133 339.42 44.1333 340.033 45.04C340.673 45.9467 340.993 47.1333 340.993 48.6C340.993 49.96 340.62 51.2267 339.873 52.4C339.127 53.5467 337.98 54.48 336.433 55.2C334.913 55.8933 332.953 56.24 330.553 56.24Z" fill="#00CF3C"/>
<defs>
<linearGradient id="paint0_linear_1704_776" x1="431.5" y1="118" x2="588" y2="118" gradientUnits="userSpaceOnUse">
<stop offset="0.07" stop-color="#FF6700"/>
<stop offset="1" stop-color="#00CF3C"/>
</linearGradient>
<linearGradient id="paint1_linear_1704_776" x1="431.5" y1="118" x2="588" y2="118" gradientUnits="userSpaceOnUse">
<stop offset="0.07" stop-color="#FF6700"/>
<stop offset="1" stop-color="#00CF3C"/>
</linearGradient>
</defs>
</svg>
