<svg width="1291" height="235" viewBox="0 0 1291 235" fill="none" xmlns="http://www.w3.org/2000/svg">
<g style="mix-blend-mode:hard-light">
<path d="M128.4 177V65H142V114.12H215.12V65H228.72V177H215.12V126.92H142V177H128.4ZM312.183 178.6C301.303 178.6 291.223 176.2 281.943 171.4C272.769 166.6 265.463 159.827 260.023 151.08C254.583 142.227 251.863 132.2 251.863 121C251.863 109.8 254.583 99.8267 260.023 91.08C265.463 82.2267 272.769 75.4 281.943 70.6C291.223 65.8 301.303 63.4 312.183 63.4C323.063 63.4 333.089 65.8 342.263 70.6C351.543 75.4 358.903 82.2267 364.343 91.08C369.783 99.8267 372.503 109.8 372.503 121C372.503 132.2 369.783 142.227 364.343 151.08C358.903 159.827 351.543 166.6 342.263 171.4C333.089 176.2 323.063 178.6 312.183 178.6ZM312.183 165.8C320.716 165.8 328.503 163.933 335.543 160.2C342.689 156.467 348.343 151.187 352.503 144.36C356.769 137.533 358.903 129.747 358.903 121C358.903 112.253 356.769 104.467 352.503 97.64C348.343 90.8133 342.689 85.5333 335.543 81.8C328.503 78.0667 320.716 76.2 312.183 76.2C303.649 76.2 295.809 78.0667 288.663 81.8C281.623 85.5333 275.969 90.8133 271.703 97.64C267.543 104.467 265.463 112.253 265.463 121C265.463 129.747 267.543 137.533 271.703 144.36C275.969 151.187 281.623 156.467 288.663 160.2C295.809 163.933 303.649 165.8 312.183 165.8ZM425.438 177V77.8H383.038V65H481.438V77.8H439.038V177H425.438ZM488.581 137.48V125.48H546.661V137.48H488.581ZM569.806 177V65H583.406V164.2H648.366V177H569.806ZM665.9 177V65H747.98V77.8H679.5V114.12H744.3V126.92H679.5V164.2H747.98V177H665.9ZM758.394 177L807.354 65H826.714L875.674 177H860.954L818.714 79.4H815.354L773.114 177H758.394ZM782.554 148.68V135.88H851.514V148.68H782.554ZM890.9 177V65H932.34C944.073 65 954.633 67.4 964.02 72.2C973.407 77 980.713 83.6667 985.94 92.2C991.273 100.627 993.94 110.227 993.94 121C993.94 131.773 991.273 141.427 985.94 149.96C980.713 158.387 973.407 165 964.02 169.8C954.633 174.6 944.073 177 932.34 177H890.9ZM932.34 164.2C941.3 164.2 949.407 162.387 956.66 158.76C964.02 155.133 969.78 150.067 973.94 143.56C978.207 136.947 980.34 129.427 980.34 121C980.34 112.573 978.207 105.107 973.94 98.6C969.78 91.9867 964.02 86.8667 956.66 83.24C949.407 79.6133 941.3 77.8 932.34 77.8H904.5V164.2H932.34ZM1059.87 178.6C1049.42 178.6 1040.46 177.107 1032.99 174.12C1025.63 171.133 1020.08 167.08 1016.35 161.96C1012.62 156.733 1010.75 150.813 1010.75 144.2H1024.35C1024.35 148.147 1025.63 151.773 1028.19 155.08C1030.75 158.387 1034.7 161 1040.03 162.92C1045.36 164.84 1051.98 165.8 1059.87 165.8C1070.96 165.8 1079.07 164.093 1084.19 160.68C1089.42 157.267 1092.03 152.68 1092.03 146.92C1092.03 141.907 1090.16 138.013 1086.43 135.24C1082.8 132.467 1076.88 130.333 1068.67 128.84L1045.31 124.36C1038.38 122.973 1032.56 121.053 1027.87 118.6C1023.18 116.04 1019.6 112.84 1017.15 109C1014.7 105.16 1013.47 100.52 1013.47 95.08C1013.47 89.2133 1015.18 83.88 1018.59 79.08C1022 74.28 1027.02 70.4933 1033.63 67.72C1040.24 64.84 1048.14 63.4 1057.31 63.4C1067.23 63.4 1075.76 64.8933 1082.91 67.88C1090.06 70.8667 1095.44 74.9733 1099.07 80.2C1102.8 85.32 1104.67 91.1867 1104.67 97.8H1091.07C1091.07 93.8533 1089.79 90.28 1087.23 87.08C1084.78 83.7733 1080.99 81.16 1075.87 79.24C1070.86 77.2133 1064.67 76.2 1057.31 76.2C1047.28 76.2 1039.71 77.9067 1034.59 81.32C1029.58 84.6267 1027.07 89.2133 1027.07 95.08C1027.07 99.6667 1028.83 103.347 1032.35 106.12C1035.98 108.787 1041.68 110.867 1049.47 112.36L1069.31 116.04C1077.84 117.64 1084.78 119.773 1090.11 122.44C1095.44 125.107 1099.34 128.467 1101.79 132.52C1104.35 136.467 1105.63 141.267 1105.63 146.92C1105.63 153.107 1103.87 158.6 1100.35 163.4C1096.94 168.2 1091.76 171.933 1084.83 174.6C1078 177.267 1069.68 178.6 1059.87 178.6Z" fill="url(#paint0_linear_1026_842)"/>
</g>
<g style="mix-blend-mode:hard-light">
<path d="M128.4 177V65H142V114.12H215.12V65H228.72V177H215.12V126.92H142V177H128.4ZM312.183 178.6C301.303 178.6 291.223 176.2 281.943 171.4C272.769 166.6 265.463 159.827 260.023 151.08C254.583 142.227 251.863 132.2 251.863 121C251.863 109.8 254.583 99.8267 260.023 91.08C265.463 82.2267 272.769 75.4 281.943 70.6C291.223 65.8 301.303 63.4 312.183 63.4C323.063 63.4 333.089 65.8 342.263 70.6C351.543 75.4 358.903 82.2267 364.343 91.08C369.783 99.8267 372.503 109.8 372.503 121C372.503 132.2 369.783 142.227 364.343 151.08C358.903 159.827 351.543 166.6 342.263 171.4C333.089 176.2 323.063 178.6 312.183 178.6ZM312.183 165.8C320.716 165.8 328.503 163.933 335.543 160.2C342.689 156.467 348.343 151.187 352.503 144.36C356.769 137.533 358.903 129.747 358.903 121C358.903 112.253 356.769 104.467 352.503 97.64C348.343 90.8133 342.689 85.5333 335.543 81.8C328.503 78.0667 320.716 76.2 312.183 76.2C303.649 76.2 295.809 78.0667 288.663 81.8C281.623 85.5333 275.969 90.8133 271.703 97.64C267.543 104.467 265.463 112.253 265.463 121C265.463 129.747 267.543 137.533 271.703 144.36C275.969 151.187 281.623 156.467 288.663 160.2C295.809 163.933 303.649 165.8 312.183 165.8ZM425.438 177V77.8H383.038V65H481.438V77.8H439.038V177H425.438ZM488.581 137.48V125.48H546.661V137.48H488.581ZM569.806 177V65H583.406V164.2H648.366V177H569.806ZM665.9 177V65H747.98V77.8H679.5V114.12H744.3V126.92H679.5V164.2H747.98V177H665.9ZM758.394 177L807.354 65H826.714L875.674 177H860.954L818.714 79.4H815.354L773.114 177H758.394ZM782.554 148.68V135.88H851.514V148.68H782.554ZM890.9 177V65H932.34C944.073 65 954.633 67.4 964.02 72.2C973.407 77 980.713 83.6667 985.94 92.2C991.273 100.627 993.94 110.227 993.94 121C993.94 131.773 991.273 141.427 985.94 149.96C980.713 158.387 973.407 165 964.02 169.8C954.633 174.6 944.073 177 932.34 177H890.9ZM932.34 164.2C941.3 164.2 949.407 162.387 956.66 158.76C964.02 155.133 969.78 150.067 973.94 143.56C978.207 136.947 980.34 129.427 980.34 121C980.34 112.573 978.207 105.107 973.94 98.6C969.78 91.9867 964.02 86.8667 956.66 83.24C949.407 79.6133 941.3 77.8 932.34 77.8H904.5V164.2H932.34ZM1059.87 178.6C1049.42 178.6 1040.46 177.107 1032.99 174.12C1025.63 171.133 1020.08 167.08 1016.35 161.96C1012.62 156.733 1010.75 150.813 1010.75 144.2H1024.35C1024.35 148.147 1025.63 151.773 1028.19 155.08C1030.75 158.387 1034.7 161 1040.03 162.92C1045.36 164.84 1051.98 165.8 1059.87 165.8C1070.96 165.8 1079.07 164.093 1084.19 160.68C1089.42 157.267 1092.03 152.68 1092.03 146.92C1092.03 141.907 1090.16 138.013 1086.43 135.24C1082.8 132.467 1076.88 130.333 1068.67 128.84L1045.31 124.36C1038.38 122.973 1032.56 121.053 1027.87 118.6C1023.18 116.04 1019.6 112.84 1017.15 109C1014.7 105.16 1013.47 100.52 1013.47 95.08C1013.47 89.2133 1015.18 83.88 1018.59 79.08C1022 74.28 1027.02 70.4933 1033.63 67.72C1040.24 64.84 1048.14 63.4 1057.31 63.4C1067.23 63.4 1075.76 64.8933 1082.91 67.88C1090.06 70.8667 1095.44 74.9733 1099.07 80.2C1102.8 85.32 1104.67 91.1867 1104.67 97.8H1091.07C1091.07 93.8533 1089.79 90.28 1087.23 87.08C1084.78 83.7733 1080.99 81.16 1075.87 79.24C1070.86 77.2133 1064.67 76.2 1057.31 76.2C1047.28 76.2 1039.71 77.9067 1034.59 81.32C1029.58 84.6267 1027.07 89.2133 1027.07 95.08C1027.07 99.6667 1028.83 103.347 1032.35 106.12C1035.98 108.787 1041.68 110.867 1049.47 112.36L1069.31 116.04C1077.84 117.64 1084.78 119.773 1090.11 122.44C1095.44 125.107 1099.34 128.467 1101.79 132.52C1104.35 136.467 1105.63 141.267 1105.63 146.92C1105.63 153.107 1103.87 158.6 1100.35 163.4C1096.94 168.2 1091.76 171.933 1084.83 174.6C1078 177.267 1069.68 178.6 1059.87 178.6Z" fill="url(#paint1_linear_1026_842)"/>
</g>
<g style="mix-blend-mode:hard-light">
<path d="M128.4 177V65H142V114.12H215.12V65H228.72V177H215.12V126.92H142V177H128.4ZM312.183 178.6C301.303 178.6 291.223 176.2 281.943 171.4C272.769 166.6 265.463 159.827 260.023 151.08C254.583 142.227 251.863 132.2 251.863 121C251.863 109.8 254.583 99.8267 260.023 91.08C265.463 82.2267 272.769 75.4 281.943 70.6C291.223 65.8 301.303 63.4 312.183 63.4C323.063 63.4 333.089 65.8 342.263 70.6C351.543 75.4 358.903 82.2267 364.343 91.08C369.783 99.8267 372.503 109.8 372.503 121C372.503 132.2 369.783 142.227 364.343 151.08C358.903 159.827 351.543 166.6 342.263 171.4C333.089 176.2 323.063 178.6 312.183 178.6ZM312.183 165.8C320.716 165.8 328.503 163.933 335.543 160.2C342.689 156.467 348.343 151.187 352.503 144.36C356.769 137.533 358.903 129.747 358.903 121C358.903 112.253 356.769 104.467 352.503 97.64C348.343 90.8133 342.689 85.5333 335.543 81.8C328.503 78.0667 320.716 76.2 312.183 76.2C303.649 76.2 295.809 78.0667 288.663 81.8C281.623 85.5333 275.969 90.8133 271.703 97.64C267.543 104.467 265.463 112.253 265.463 121C265.463 129.747 267.543 137.533 271.703 144.36C275.969 151.187 281.623 156.467 288.663 160.2C295.809 163.933 303.649 165.8 312.183 165.8ZM425.438 177V77.8H383.038V65H481.438V77.8H439.038V177H425.438ZM488.581 137.48V125.48H546.661V137.48H488.581ZM569.806 177V65H583.406V164.2H648.366V177H569.806ZM665.9 177V65H747.98V77.8H679.5V114.12H744.3V126.92H679.5V164.2H747.98V177H665.9ZM758.394 177L807.354 65H826.714L875.674 177H860.954L818.714 79.4H815.354L773.114 177H758.394ZM782.554 148.68V135.88H851.514V148.68H782.554ZM890.9 177V65H932.34C944.073 65 954.633 67.4 964.02 72.2C973.407 77 980.713 83.6667 985.94 92.2C991.273 100.627 993.94 110.227 993.94 121C993.94 131.773 991.273 141.427 985.94 149.96C980.713 158.387 973.407 165 964.02 169.8C954.633 174.6 944.073 177 932.34 177H890.9ZM932.34 164.2C941.3 164.2 949.407 162.387 956.66 158.76C964.02 155.133 969.78 150.067 973.94 143.56C978.207 136.947 980.34 129.427 980.34 121C980.34 112.573 978.207 105.107 973.94 98.6C969.78 91.9867 964.02 86.8667 956.66 83.24C949.407 79.6133 941.3 77.8 932.34 77.8H904.5V164.2H932.34ZM1059.87 178.6C1049.42 178.6 1040.46 177.107 1032.99 174.12C1025.63 171.133 1020.08 167.08 1016.35 161.96C1012.62 156.733 1010.75 150.813 1010.75 144.2H1024.35C1024.35 148.147 1025.63 151.773 1028.19 155.08C1030.75 158.387 1034.7 161 1040.03 162.92C1045.36 164.84 1051.98 165.8 1059.87 165.8C1070.96 165.8 1079.07 164.093 1084.19 160.68C1089.42 157.267 1092.03 152.68 1092.03 146.92C1092.03 141.907 1090.16 138.013 1086.43 135.24C1082.8 132.467 1076.88 130.333 1068.67 128.84L1045.31 124.36C1038.38 122.973 1032.56 121.053 1027.87 118.6C1023.18 116.04 1019.6 112.84 1017.15 109C1014.7 105.16 1013.47 100.52 1013.47 95.08C1013.47 89.2133 1015.18 83.88 1018.59 79.08C1022 74.28 1027.02 70.4933 1033.63 67.72C1040.24 64.84 1048.14 63.4 1057.31 63.4C1067.23 63.4 1075.76 64.8933 1082.91 67.88C1090.06 70.8667 1095.44 74.9733 1099.07 80.2C1102.8 85.32 1104.67 91.1867 1104.67 97.8H1091.07C1091.07 93.8533 1089.79 90.28 1087.23 87.08C1084.78 83.7733 1080.99 81.16 1075.87 79.24C1070.86 77.2133 1064.67 76.2 1057.31 76.2C1047.28 76.2 1039.71 77.9067 1034.59 81.32C1029.58 84.6267 1027.07 89.2133 1027.07 95.08C1027.07 99.6667 1028.83 103.347 1032.35 106.12C1035.98 108.787 1041.68 110.867 1049.47 112.36L1069.31 116.04C1077.84 117.64 1084.78 119.773 1090.11 122.44C1095.44 125.107 1099.34 128.467 1101.79 132.52C1104.35 136.467 1105.63 141.267 1105.63 146.92C1105.63 153.107 1103.87 158.6 1100.35 163.4C1096.94 168.2 1091.76 171.933 1084.83 174.6C1078 177.267 1069.68 178.6 1059.87 178.6Z" fill="url(#paint2_linear_1026_842)"/>
</g>
<path d="M1150.39 108.055V82.25H1163.3C1164.85 82.25 1166.23 82.5941 1167.46 83.2822C1168.71 83.9457 1169.68 84.8796 1170.36 86.0839C1171.08 87.2881 1171.43 88.6643 1171.43 90.2126C1171.43 91.7609 1171.08 93.1372 1170.36 94.3414C1169.68 95.5456 1168.71 96.4918 1167.46 97.1799C1166.23 97.8435 1164.85 98.1752 1163.3 98.1752H1159.7V97.438L1172.06 108.055H1167.79L1156.32 98.1752H1153.52V108.055H1150.39ZM1163.3 95.2261C1164.28 95.2261 1165.15 95.0295 1165.91 94.6363C1166.67 94.2185 1167.26 93.6287 1167.68 92.8668C1168.1 92.105 1168.3 91.2202 1168.3 90.2126C1168.3 89.205 1168.1 88.3203 1167.68 87.5584C1167.26 86.7966 1166.67 86.219 1165.91 85.8258C1165.15 85.408 1164.28 85.1991 1163.3 85.1991H1153.52V95.2261H1163.3Z" fill="#00CF3C"/>
<path d="M1160.31 124.236C1154.75 124.236 1149.6 123.008 1144.86 120.55C1140.18 118.092 1136.44 114.625 1133.66 110.146C1130.89 105.613 1129.5 100.48 1129.5 94.7451C1129.5 89.0107 1130.89 83.9044 1133.66 79.4261C1136.44 74.8932 1140.18 71.3979 1144.86 68.9403C1149.6 66.4827 1154.75 65.2539 1160.31 65.2539C1165.86 65.2539 1170.99 66.4827 1175.67 68.9403C1180.41 71.3979 1184.17 74.8932 1186.95 79.4261C1189.73 83.9044 1191.12 89.0107 1191.12 94.7451C1191.12 100.48 1189.73 105.613 1186.95 110.146C1184.17 114.625 1180.41 118.092 1175.67 120.55C1170.99 123.008 1165.86 124.236 1160.31 124.236ZM1160.31 117.683C1164.67 117.683 1168.64 116.727 1172.24 114.816C1175.89 112.904 1178.78 110.201 1180.9 106.705C1183.08 103.21 1184.17 99.2236 1184.17 94.7451C1184.17 90.2668 1183.08 86.2801 1180.9 82.7848C1178.78 79.2895 1175.89 76.5862 1172.24 74.6747C1168.64 72.7633 1164.67 71.8075 1160.31 71.8075C1155.95 71.8075 1151.94 72.7633 1148.29 74.6747C1144.7 76.5862 1141.81 79.2895 1139.63 82.7848C1137.51 86.2801 1136.44 90.2668 1136.44 94.7451C1136.44 99.2236 1137.51 103.21 1139.63 106.705C1141.81 110.201 1144.7 112.904 1148.29 114.816C1151.94 116.727 1155.95 117.683 1160.31 117.683Z" fill="#00CF3C"/>
<path d="M55.9625 192V43.2H92.2825V55.2H68.7625V180H92.2825V192H55.9625Z" fill="#FF2400"/>
<path d="M1235.04 43L1235.04 191.8L1198.72 191.8L1198.72 179.8L1222.24 179.8L1222.24 55L1198.72 55L1198.72 43L1235.04 43Z" fill="#00CF3C"/>
<path d="M125.736 56V39.2H132.024C133.448 39.2 134.672 39.432 135.696 39.896C136.72 40.344 137.504 41 138.048 41.864C138.608 42.712 138.888 43.744 138.888 44.96C138.888 46.144 138.608 47.168 138.048 48.032C137.504 48.88 136.72 49.536 135.696 50C134.672 50.464 133.448 50.696 132.024 50.696H126.72L127.512 49.856V56H125.736ZM127.512 50L126.72 49.136H131.976C133.656 49.136 134.928 48.776 135.792 48.056C136.672 47.32 137.112 46.288 137.112 44.96C137.112 43.616 136.672 42.576 135.792 41.84C134.928 41.104 133.656 40.736 131.976 40.736H126.72L127.512 39.896V50ZM139.196 56L146.876 39.2L148.628 39.2L156.308 56L154.436 56L147.38 40.232L148.1 40.232L141.044 56H139.196ZM142.22 51.512L142.748 50.072H152.516L153.044 51.512H142.22ZM159.088 56V39.2H165.376C166.8 39.2 168.024 39.432 169.048 39.896C170.072 40.344 170.856 41 171.4 41.864C171.96 42.712 172.24 43.744 172.24 44.96C172.24 46.144 171.96 47.168 171.4 48.032C170.856 48.88 170.072 49.536 169.048 50C168.024 50.448 166.8 50.672 165.376 50.672H160.072L160.864 49.856V56H159.088ZM170.56 56L166.24 49.904H168.16L172.504 56H170.56ZM160.864 50L160.072 49.16H165.328C167.008 49.16 168.28 48.792 169.144 48.056C170.024 47.32 170.464 46.288 170.464 44.96C170.464 43.616 170.024 42.576 169.144 41.84C168.28 41.104 167.008 40.736 165.328 40.736H160.072L160.864 39.896V50ZM179.461 56V40.736H173.557V39.2L187.141 39.2V40.736L181.237 40.736V56H179.461ZM189.978 56V39.2H191.442L203.034 53.792H202.266V39.2H204.018V56H202.554L190.986 41.408H191.754V56H189.978ZM211.086 46.712H219.966V48.224H211.086V46.712ZM211.278 54.464H221.382V56H209.502V39.2H221.022V40.736H211.278V54.464ZM225.556 56V39.2H231.844C233.268 39.2 234.492 39.432 235.516 39.896C236.54 40.344 237.324 41 237.868 41.864C238.428 42.712 238.708 43.744 238.708 44.96C238.708 46.144 238.428 47.168 237.868 48.032C237.324 48.88 236.54 49.536 235.516 50C234.492 50.448 233.268 50.672 231.844 50.672H226.54L227.332 49.856V56H225.556ZM237.028 56L232.708 49.904H234.628L238.972 56H237.028ZM227.332 50L226.54 49.16H231.796C233.476 49.16 234.748 48.792 235.612 48.056C236.492 47.32 236.932 46.288 236.932 44.96C236.932 43.616 236.492 42.576 235.612 41.84C234.748 41.104 233.476 40.736 231.796 40.736H226.54L227.332 39.896V50ZM247.532 56.144C246.284 56.144 245.084 55.944 243.932 55.544C242.796 55.128 241.916 54.6 241.292 53.96L241.988 52.592C242.58 53.168 243.372 53.656 244.364 54.056C245.372 54.44 246.428 54.632 247.532 54.632C248.588 54.632 249.444 54.504 250.1 54.248C250.772 53.976 251.26 53.616 251.564 53.168C251.884 52.72 252.044 52.224 252.044 51.68C252.044 51.024 251.852 50.496 251.468 50.096C251.1 49.696 250.612 49.384 250.004 49.16C249.396 48.92 248.724 48.712 247.988 48.536C247.252 48.36 246.516 48.176 245.78 47.984C245.044 47.776 244.364 47.504 243.74 47.168C243.132 46.832 242.636 46.392 242.252 45.848C241.884 45.288 241.7 44.56 241.7 43.664C241.7 42.832 241.916 42.072 242.348 41.384C242.796 40.68 243.476 40.12 244.388 39.704C245.3 39.272 246.468 39.056 247.892 39.056C248.836 39.056 249.772 39.192 250.7 39.464C251.628 39.72 252.428 40.08 253.1 40.544L252.5 41.96C251.78 41.48 251.012 41.128 250.196 40.904C249.396 40.68 248.62 40.568 247.868 40.568C246.86 40.568 246.028 40.704 245.372 40.976C244.716 41.248 244.228 41.616 243.908 42.08C243.604 42.528 243.452 43.04 243.452 43.616C243.452 44.272 243.636 44.8 244.004 45.2C244.388 45.6 244.884 45.912 245.492 46.136C246.116 46.36 246.796 46.56 247.532 46.736C248.268 46.912 248.996 47.104 249.716 47.312C250.452 47.52 251.124 47.792 251.732 48.128C252.356 48.448 252.852 48.88 253.22 49.424C253.604 49.968 253.796 50.68 253.796 51.56C253.796 52.376 253.572 53.136 253.124 53.84C252.676 54.528 251.988 55.088 251.06 55.52C250.148 55.936 248.972 56.144 247.532 56.144Z" fill="#FF2401"/>
<defs>
<linearGradient id="paint0_linear_1026_842" x1="431.5" y1="118" x2="588" y2="118" gradientUnits="userSpaceOnUse">
<stop offset="0.07" stop-color="#FF6700"/>
<stop offset="1" stop-color="#00CF3C"/>
</linearGradient>
<linearGradient id="paint1_linear_1026_842" x1="431.5" y1="118" x2="588" y2="118" gradientUnits="userSpaceOnUse">
<stop offset="0.07" stop-color="#FF6700"/>
<stop offset="1" stop-color="#00CF3C"/>
</linearGradient>
<linearGradient id="paint2_linear_1026_842" x1="431.5" y1="118" x2="588" y2="118" gradientUnits="userSpaceOnUse">
<stop offset="0.07" stop-color="#FF6700"/>
<stop offset="1" stop-color="#00CF3C"/>
</linearGradient>
</defs>
</svg>
