<svg width="394" height="82" viewBox="0 0 394 82" fill="none" xmlns="http://www.w3.org/2000/svg">
<g style="mix-blend-mode:hard-light">
<path d="M39.32 59V25.4H43.4V40.136H65.336V25.4H69.416V59H65.336V43.976H43.4V59H39.32ZM94.4548 59.48C91.1908 59.48 88.1668 58.76 85.3828 57.32C82.6308 55.88 80.4388 53.848 78.8068 51.224C77.1748 48.568 76.3588 45.56 76.3588 42.2C76.3588 38.84 77.1748 35.848 78.8068 33.224C80.4388 30.568 82.6308 28.52 85.3828 27.08C88.1668 25.64 91.1908 24.92 94.4548 24.92C97.7188 24.92 100.727 25.64 103.479 27.08C106.263 28.52 108.471 30.568 110.103 33.224C111.735 35.848 112.551 38.84 112.551 42.2C112.551 45.56 111.735 48.568 110.103 51.224C108.471 53.848 106.263 55.88 103.479 57.32C100.727 58.76 97.7188 59.48 94.4548 59.48ZM94.4548 55.64C97.0148 55.64 99.3508 55.08 101.463 53.96C103.607 52.84 105.303 51.256 106.551 49.208C107.831 47.16 108.471 44.824 108.471 42.2C108.471 39.576 107.831 37.24 106.551 35.192C105.303 33.144 103.607 31.56 101.463 30.44C99.3508 29.32 97.0148 28.76 94.4548 28.76C91.8948 28.76 89.5428 29.32 87.3988 30.44C85.2868 31.56 83.5908 33.144 82.3108 35.192C81.0628 37.24 80.4388 39.576 80.4388 42.2C80.4388 44.824 81.0628 47.16 82.3108 49.208C83.5908 51.256 85.2868 52.84 87.3988 53.96C89.5428 55.08 91.8948 55.64 94.4548 55.64ZM128.431 59V29.24H115.711V25.4H145.231V29.24H132.511V59H128.431ZM147.374 47.144V43.544H164.798V47.144H147.374ZM171.742 59V25.4H175.822V55.16H195.31V59H171.742ZM200.57 59V25.4H225.194V29.24H204.65V40.136H224.09V43.976H204.65V55.16H225.194V59H200.57ZM228.318 59L243.006 25.4H248.814L263.502 59H259.086L246.414 29.72H245.406L232.734 59H228.318ZM235.566 50.504V46.664H256.254V50.504H235.566ZM268.07 59V25.4H280.502C284.022 25.4 287.19 26.12 290.006 27.56C292.822 29 295.014 31 296.582 33.56C298.182 36.088 298.982 38.968 298.982 42.2C298.982 45.432 298.182 48.328 296.582 50.888C295.014 53.416 292.822 55.4 290.006 56.84C287.19 58.28 284.022 59 280.502 59H268.07ZM280.502 55.16C283.19 55.16 285.622 54.616 287.798 53.528C290.006 52.44 291.734 50.92 292.982 48.968C294.262 46.984 294.902 44.728 294.902 42.2C294.902 39.672 294.262 37.432 292.982 35.48C291.734 33.496 290.006 31.96 287.798 30.872C285.622 29.784 283.19 29.24 280.502 29.24H272.15V55.16H280.502ZM318.761 59.48C315.625 59.48 312.937 59.032 310.697 58.136C308.489 57.24 306.825 56.024 305.705 54.488C304.585 52.92 304.025 51.144 304.025 49.16H308.105C308.105 50.344 308.489 51.432 309.257 52.424C310.025 53.416 311.209 54.2 312.809 54.776C314.409 55.352 316.393 55.64 318.761 55.64C322.089 55.64 324.521 55.128 326.057 54.104C327.625 53.08 328.409 51.704 328.409 49.976C328.409 48.472 327.849 47.304 326.729 46.472C325.641 45.64 323.865 45 321.401 44.552L314.393 43.208C312.313 42.792 310.569 42.216 309.161 41.48C307.753 40.712 306.681 39.752 305.945 38.6C305.209 37.448 304.841 36.056 304.841 34.424C304.841 32.664 305.353 31.064 306.377 29.624C307.401 28.184 308.905 27.048 310.889 26.216C312.873 25.352 315.241 24.92 317.993 24.92C320.969 24.92 323.529 25.368 325.673 26.264C327.817 27.16 329.433 28.392 330.521 29.96C331.641 31.496 332.201 33.256 332.201 35.24H328.121C328.121 34.056 327.737 32.984 326.969 32.024C326.233 31.032 325.097 30.248 323.561 29.672C322.057 29.064 320.201 28.76 317.993 28.76C314.985 28.76 312.713 29.272 311.177 30.296C309.673 31.288 308.921 32.664 308.921 34.424C308.921 35.8 309.449 36.904 310.505 37.736C311.593 38.536 313.305 39.16 315.641 39.608L321.593 40.712C324.153 41.192 326.233 41.832 327.833 42.632C329.433 43.432 330.601 44.44 331.337 45.656C332.105 46.84 332.489 48.28 332.489 49.976C332.489 51.832 331.961 53.48 330.905 54.92C329.881 56.36 328.329 57.48 326.249 58.28C324.201 59.08 321.705 59.48 318.761 59.48Z" fill="url(#paint0_linear_1042_240)"/>
</g>
<path d="M19.5869 67.2V15.12H32.2989V19.32H24.0669V63H32.2989V67.2H19.5869Z" fill="#FF2400"/>
<path d="M345.512 39.3756V31.7148H349.33C349.787 31.7148 350.196 31.817 350.559 32.0213C350.929 32.2183 351.215 32.4955 351.418 32.853C351.629 33.2105 351.734 33.6191 351.734 34.0787C351.734 34.5384 351.629 34.947 351.418 35.3045C351.215 35.662 350.929 35.9429 350.559 36.1472C350.196 36.3442 349.787 36.4427 349.33 36.4427H348.264V36.2238L351.919 39.3756H350.657L347.263 36.4427H346.436V39.3756H345.512ZM349.33 35.5671C349.62 35.5671 349.877 35.5088 350.102 35.392C350.327 35.268 350.501 35.0929 350.624 34.8667C350.748 34.6405 350.809 34.3779 350.809 34.0787C350.809 33.7796 350.748 33.517 350.624 33.2908C350.501 33.0646 350.327 32.8931 350.102 32.7764C349.877 32.6524 349.62 32.5904 349.33 32.5904H346.436V35.5671H349.33Z" fill="#00CF3C"/>
<path d="M348.443 44.1803C346.799 44.1803 345.277 43.8155 343.875 43.0859C342.489 42.3563 341.385 41.3268 340.563 39.9973C339.741 38.6516 339.33 37.1275 339.33 35.4251C339.33 33.7227 339.741 32.2068 340.563 30.8773C341.385 29.5316 342.489 28.4939 343.875 27.7643C345.277 27.0347 346.799 26.6699 348.443 26.6699C350.087 26.6699 351.602 27.0347 352.988 27.7643C354.39 28.4939 355.502 29.5316 356.323 30.8773C357.145 32.2068 357.556 33.7227 357.556 35.4251C357.556 37.1275 357.145 38.6516 356.323 39.9973C355.502 41.3268 354.39 42.3563 352.988 43.0859C351.602 43.8155 350.087 44.1803 348.443 44.1803ZM348.443 42.2347C349.732 42.2347 350.909 41.9509 351.972 41.3835C353.052 40.8161 353.906 40.0135 354.535 38.9758C355.179 37.9381 355.502 36.7547 355.502 35.4251C355.502 34.0956 355.179 32.9121 354.535 31.8744C353.906 30.8367 353.052 30.0342 351.972 29.4667C350.909 28.8993 349.732 28.6155 348.443 28.6155C347.154 28.6155 345.97 28.8993 344.89 29.4667C343.826 30.0342 342.972 30.8367 342.327 31.8744C341.699 32.9121 341.385 34.0956 341.385 35.4251C341.385 36.7547 341.699 37.9381 342.327 38.9758C342.972 40.0135 343.826 40.8161 344.89 41.3835C345.97 41.9509 347.154 42.2347 348.443 42.2347Z" fill="#00CF3C"/>
<path d="M374.413 14.8L374.413 66.88L361.701 66.88L361.701 62.68L369.933 62.68L369.933 19L361.701 19L361.701 14.8L374.413 14.8Z" fill="#00CF3C"/>
<path d="M39.96 22V13.6H43.62C44.06 13.6 44.46 13.712 44.82 13.936C45.188 14.16 45.48 14.468 45.696 14.86C45.912 15.252 46.02 15.692 46.02 16.18C46.02 16.668 45.912 17.108 45.696 17.5C45.48 17.892 45.188 18.2 44.82 18.424C44.46 18.648 44.06 18.76 43.62 18.76H40.92V22H39.96ZM43.62 17.86C43.884 17.86 44.124 17.792 44.34 17.656C44.564 17.512 44.74 17.312 44.868 17.056C44.996 16.8 45.06 16.508 45.06 16.18C45.06 15.852 44.996 15.56 44.868 15.304C44.74 15.048 44.564 14.852 44.34 14.716C44.124 14.572 43.884 14.5 43.62 14.5H40.92V17.86H43.62ZM45.9023 22L49.0823 13.6H50.5223L53.7023 22H52.6823L49.9223 14.62H49.6823L46.9223 22H45.9023ZM47.5823 19.84V18.94H52.0823V19.84H47.5823ZM54.667 22V13.6H58.327C58.767 13.6 59.167 13.712 59.527 13.936C59.895 14.16 60.187 14.468 60.403 14.86C60.619 15.252 60.727 15.692 60.727 16.18C60.727 16.668 60.619 17.108 60.403 17.5C60.187 17.892 59.895 18.2 59.527 18.424C59.167 18.648 58.767 18.76 58.327 18.76H57.295V18.532L60.907 22H59.707L56.347 18.76H55.627V22L54.667 22ZM58.327 17.86C58.591 17.86 58.831 17.792 59.047 17.656C59.271 17.512 59.447 17.312 59.575 17.056C59.703 16.8 59.767 16.508 59.767 16.18C59.767 15.852 59.703 15.56 59.575 15.304C59.447 15.048 59.271 14.852 59.047 14.716C58.831 14.572 58.591 14.5 58.327 14.5H55.627V17.86H58.327ZM64.2084 22V14.5H61.4484V13.6H67.9284V14.5H65.1684V22H64.2084ZM69.1866 22V13.6H70.8066L74.5866 20.86H74.8266V13.6H75.7866V22H74.1666L70.3866 14.74H70.1466V22H69.1866ZM77.7061 22V13.6H83.1061V14.5H78.6661V17.32H82.8661V18.22H78.6661V21.1H83.1061V22H77.7061ZM84.7256 22V13.6H88.3856C88.8256 13.6 89.2256 13.712 89.5856 13.936C89.9536 14.16 90.2456 14.468 90.4616 14.86C90.6776 15.252 90.7856 15.692 90.7856 16.18C90.7856 16.668 90.6776 17.108 90.4616 17.5C90.2456 17.892 89.9536 18.2 89.5856 18.424C89.2256 18.648 88.8256 18.76 88.3856 18.76H87.3536V18.532L90.9656 22H89.7656L86.4056 18.76H85.6856V22H84.7256ZM88.3856 17.86C88.6496 17.86 88.8896 17.792 89.1056 17.656C89.3296 17.512 89.5056 17.312 89.6336 17.056C89.7616 16.8 89.8256 16.508 89.8256 16.18C89.8256 15.852 89.7616 15.56 89.6336 15.304C89.5056 15.048 89.3296 14.852 89.1056 14.716C88.8896 14.572 88.6496 14.5 88.3856 14.5H85.6856V17.86H88.3856ZM95.1614 22.12C94.5214 22.12 93.9614 22.004 93.4814 21.772C93.0014 21.532 92.6294 21.216 92.3654 20.824C92.1094 20.432 91.9814 20.004 91.9814 19.54H92.9414C92.9414 19.844 93.0254 20.124 93.1934 20.38C93.3694 20.636 93.6254 20.84 93.9614 20.992C94.2974 21.144 94.6974 21.22 95.1614 21.22C95.8734 21.22 96.4014 21.084 96.7454 20.812C97.0894 20.532 97.2614 20.168 97.2614 19.72C97.2614 19.36 97.1414 19.064 96.9014 18.832C96.6614 18.592 96.3014 18.428 95.8214 18.34L94.2014 18.04C93.7534 17.952 93.3774 17.816 93.0734 17.632C92.7774 17.448 92.5494 17.212 92.3894 16.924C92.2374 16.628 92.1614 16.28 92.1614 15.88C92.1614 15.416 92.2774 15.004 92.5094 14.644C92.7414 14.284 93.0734 14 93.5054 13.792C93.9454 13.584 94.4574 13.48 95.0414 13.48C95.6654 13.48 96.2134 13.596 96.6854 13.828C97.1574 14.052 97.5214 14.36 97.7774 14.752C98.0334 15.144 98.1614 15.58 98.1614 16.06H97.2014C97.2014 15.756 97.1134 15.476 96.9374 15.22C96.7694 14.964 96.5214 14.76 96.1934 14.608C95.8734 14.456 95.4894 14.38 95.0414 14.38C94.4334 14.38 93.9614 14.52 93.6254 14.8C93.2894 15.08 93.1214 15.44 93.1214 15.88C93.1214 16.216 93.2334 16.5 93.4574 16.732C93.6894 16.964 94.0374 17.12 94.5014 17.2L95.8214 17.44C96.3814 17.536 96.8374 17.684 97.1894 17.884C97.5414 18.084 97.8014 18.336 97.9694 18.64C98.1374 18.936 98.2214 19.296 98.2214 19.72C98.2214 20.184 98.1014 20.6 97.8614 20.968C97.6294 21.328 97.2814 21.612 96.8174 21.82C96.3534 22.02 95.8014 22.12 95.1614 22.12Z" fill="#FF2401"/>
<defs>
<linearGradient id="paint0_linear_1042_240" x1="130.472" y1="41" x2="177.531" y2="41" gradientUnits="userSpaceOnUse">
<stop offset="0.07" stop-color="#FF2401"/>
<stop offset="1" stop-color="#00CF3C"/>
</linearGradient>
</defs>
</svg>
