<svg width="1291" height="235" viewBox="0 0 1291 235" fill="none" xmlns="http://www.w3.org/2000/svg">
<g style="mix-blend-mode:hard-light">
<path d="M128.4 177V65H142V114.12H215.12V65H228.72V177H215.12V126.92H142V177H128.4ZM312.183 178.6C301.303 178.6 291.223 176.2 281.943 171.4C272.769 166.6 265.463 159.827 260.023 151.08C254.583 142.227 251.863 132.2 251.863 121C251.863 109.8 254.583 99.8267 260.023 91.08C265.463 82.2267 272.769 75.4 281.943 70.6C291.223 65.8 301.303 63.4 312.183 63.4C323.063 63.4 333.089 65.8 342.263 70.6C351.543 75.4 358.903 82.2267 364.343 91.08C369.783 99.8267 372.503 109.8 372.503 121C372.503 132.2 369.783 142.227 364.343 151.08C358.903 159.827 351.543 166.6 342.263 171.4C333.089 176.2 323.063 178.6 312.183 178.6ZM312.183 165.8C320.716 165.8 328.503 163.933 335.543 160.2C342.689 156.467 348.343 151.187 352.503 144.36C356.769 137.533 358.903 129.747 358.903 121C358.903 112.253 356.769 104.467 352.503 97.64C348.343 90.8133 342.689 85.5333 335.543 81.8C328.503 78.0667 320.716 76.2 312.183 76.2C303.649 76.2 295.809 78.0667 288.663 81.8C281.623 85.5333 275.969 90.8133 271.703 97.64C267.543 104.467 265.463 112.253 265.463 121C265.463 129.747 267.543 137.533 271.703 144.36C275.969 151.187 281.623 156.467 288.663 160.2C295.809 163.933 303.649 165.8 312.183 165.8ZM425.438 177V77.8H383.038V65H481.438V77.8H439.038V177H425.438ZM488.581 137.48V125.48H546.661V137.48H488.581ZM569.806 177V65H583.406V164.2H648.366V177H569.806ZM665.9 177V65H747.98V77.8H679.5V114.12H744.3V126.92H679.5V164.2H747.98V177H665.9ZM758.394 177L807.354 65H826.714L875.674 177H860.954L818.714 79.4H815.354L773.114 177H758.394ZM782.554 148.68V135.88H851.514V148.68H782.554ZM890.9 177V65H932.34C944.073 65 954.633 67.4 964.02 72.2C973.407 77 980.713 83.6667 985.94 92.2C991.273 100.627 993.94 110.227 993.94 121C993.94 131.773 991.273 141.427 985.94 149.96C980.713 158.387 973.407 165 964.02 169.8C954.633 174.6 944.073 177 932.34 177H890.9ZM932.34 164.2C941.3 164.2 949.407 162.387 956.66 158.76C964.02 155.133 969.78 150.067 973.94 143.56C978.207 136.947 980.34 129.427 980.34 121C980.34 112.573 978.207 105.107 973.94 98.6C969.78 91.9867 964.02 86.8667 956.66 83.24C949.407 79.6133 941.3 77.8 932.34 77.8H904.5V164.2H932.34ZM1059.87 178.6C1049.42 178.6 1040.46 177.107 1032.99 174.12C1025.63 171.133 1020.08 167.08 1016.35 161.96C1012.62 156.733 1010.75 150.813 1010.75 144.2H1024.35C1024.35 148.147 1025.63 151.773 1028.19 155.08C1030.75 158.387 1034.7 161 1040.03 162.92C1045.36 164.84 1051.98 165.8 1059.87 165.8C1070.96 165.8 1079.07 164.093 1084.19 160.68C1089.42 157.267 1092.03 152.68 1092.03 146.92C1092.03 141.907 1090.16 138.013 1086.43 135.24C1082.8 132.467 1076.88 130.333 1068.67 128.84L1045.31 124.36C1038.38 122.973 1032.56 121.053 1027.87 118.6C1023.18 116.04 1019.6 112.84 1017.15 109C1014.7 105.16 1013.47 100.52 1013.47 95.08C1013.47 89.2133 1015.18 83.88 1018.59 79.08C1022 74.28 1027.02 70.4933 1033.63 67.72C1040.24 64.84 1048.14 63.4 1057.31 63.4C1067.23 63.4 1075.76 64.8933 1082.91 67.88C1090.06 70.8667 1095.44 74.9733 1099.07 80.2C1102.8 85.32 1104.67 91.1867 1104.67 97.8H1091.07C1091.07 93.8533 1089.79 90.28 1087.23 87.08C1084.78 83.7733 1080.99 81.16 1075.87 79.24C1070.86 77.2133 1064.67 76.2 1057.31 76.2C1047.28 76.2 1039.71 77.9067 1034.59 81.32C1029.58 84.6267 1027.07 89.2133 1027.07 95.08C1027.07 99.6667 1028.83 103.347 1032.35 106.12C1035.98 108.787 1041.68 110.867 1049.47 112.36L1069.31 116.04C1077.84 117.64 1084.78 119.773 1090.11 122.44C1095.44 125.107 1099.34 128.467 1101.79 132.52C1104.35 136.467 1105.63 141.267 1105.63 146.92C1105.63 153.107 1103.87 158.6 1100.35 163.4C1096.94 168.2 1091.76 171.933 1084.83 174.6C1078 177.267 1069.68 178.6 1059.87 178.6Z" fill="url(#paint0_linear_1705_794)"/>
</g>
<g style="mix-blend-mode:hard-light">
<path d="M128.4 177V65H142V114.12H215.12V65H228.72V177H215.12V126.92H142V177H128.4ZM312.183 178.6C301.303 178.6 291.223 176.2 281.943 171.4C272.769 166.6 265.463 159.827 260.023 151.08C254.583 142.227 251.863 132.2 251.863 121C251.863 109.8 254.583 99.8267 260.023 91.08C265.463 82.2267 272.769 75.4 281.943 70.6C291.223 65.8 301.303 63.4 312.183 63.4C323.063 63.4 333.089 65.8 342.263 70.6C351.543 75.4 358.903 82.2267 364.343 91.08C369.783 99.8267 372.503 109.8 372.503 121C372.503 132.2 369.783 142.227 364.343 151.08C358.903 159.827 351.543 166.6 342.263 171.4C333.089 176.2 323.063 178.6 312.183 178.6ZM312.183 165.8C320.716 165.8 328.503 163.933 335.543 160.2C342.689 156.467 348.343 151.187 352.503 144.36C356.769 137.533 358.903 129.747 358.903 121C358.903 112.253 356.769 104.467 352.503 97.64C348.343 90.8133 342.689 85.5333 335.543 81.8C328.503 78.0667 320.716 76.2 312.183 76.2C303.649 76.2 295.809 78.0667 288.663 81.8C281.623 85.5333 275.969 90.8133 271.703 97.64C267.543 104.467 265.463 112.253 265.463 121C265.463 129.747 267.543 137.533 271.703 144.36C275.969 151.187 281.623 156.467 288.663 160.2C295.809 163.933 303.649 165.8 312.183 165.8ZM425.438 177V77.8H383.038V65H481.438V77.8H439.038V177H425.438ZM488.581 137.48V125.48H546.661V137.48H488.581ZM569.806 177V65H583.406V164.2H648.366V177H569.806ZM665.9 177V65H747.98V77.8H679.5V114.12H744.3V126.92H679.5V164.2H747.98V177H665.9ZM758.394 177L807.354 65H826.714L875.674 177H860.954L818.714 79.4H815.354L773.114 177H758.394ZM782.554 148.68V135.88H851.514V148.68H782.554ZM890.9 177V65H932.34C944.073 65 954.633 67.4 964.02 72.2C973.407 77 980.713 83.6667 985.94 92.2C991.273 100.627 993.94 110.227 993.94 121C993.94 131.773 991.273 141.427 985.94 149.96C980.713 158.387 973.407 165 964.02 169.8C954.633 174.6 944.073 177 932.34 177H890.9ZM932.34 164.2C941.3 164.2 949.407 162.387 956.66 158.76C964.02 155.133 969.78 150.067 973.94 143.56C978.207 136.947 980.34 129.427 980.34 121C980.34 112.573 978.207 105.107 973.94 98.6C969.78 91.9867 964.02 86.8667 956.66 83.24C949.407 79.6133 941.3 77.8 932.34 77.8H904.5V164.2H932.34ZM1059.87 178.6C1049.42 178.6 1040.46 177.107 1032.99 174.12C1025.63 171.133 1020.08 167.08 1016.35 161.96C1012.62 156.733 1010.75 150.813 1010.75 144.2H1024.35C1024.35 148.147 1025.63 151.773 1028.19 155.08C1030.75 158.387 1034.7 161 1040.03 162.92C1045.36 164.84 1051.98 165.8 1059.87 165.8C1070.96 165.8 1079.07 164.093 1084.19 160.68C1089.42 157.267 1092.03 152.68 1092.03 146.92C1092.03 141.907 1090.16 138.013 1086.43 135.24C1082.8 132.467 1076.88 130.333 1068.67 128.84L1045.31 124.36C1038.38 122.973 1032.56 121.053 1027.87 118.6C1023.18 116.04 1019.6 112.84 1017.15 109C1014.7 105.16 1013.47 100.52 1013.47 95.08C1013.47 89.2133 1015.18 83.88 1018.59 79.08C1022 74.28 1027.02 70.4933 1033.63 67.72C1040.24 64.84 1048.14 63.4 1057.31 63.4C1067.23 63.4 1075.76 64.8933 1082.91 67.88C1090.06 70.8667 1095.44 74.9733 1099.07 80.2C1102.8 85.32 1104.67 91.1867 1104.67 97.8H1091.07C1091.07 93.8533 1089.79 90.28 1087.23 87.08C1084.78 83.7733 1080.99 81.16 1075.87 79.24C1070.86 77.2133 1064.67 76.2 1057.31 76.2C1047.28 76.2 1039.71 77.9067 1034.59 81.32C1029.58 84.6267 1027.07 89.2133 1027.07 95.08C1027.07 99.6667 1028.83 103.347 1032.35 106.12C1035.98 108.787 1041.68 110.867 1049.47 112.36L1069.31 116.04C1077.84 117.64 1084.78 119.773 1090.11 122.44C1095.44 125.107 1099.34 128.467 1101.79 132.52C1104.35 136.467 1105.63 141.267 1105.63 146.92C1105.63 153.107 1103.87 158.6 1100.35 163.4C1096.94 168.2 1091.76 171.933 1084.83 174.6C1078 177.267 1069.68 178.6 1059.87 178.6Z" fill="url(#paint1_linear_1705_794)"/>
</g>
<path d="M128.4 177V65H142V114.12H215.12V65H228.72V177H215.12V126.92H142V177H128.4ZM312.183 178.6C301.303 178.6 291.223 176.2 281.943 171.4C272.769 166.6 265.463 159.827 260.023 151.08C254.583 142.227 251.863 132.2 251.863 121C251.863 109.8 254.583 99.8267 260.023 91.08C265.463 82.2267 272.769 75.4 281.943 70.6C291.223 65.8 301.303 63.4 312.183 63.4C323.063 63.4 333.089 65.8 342.263 70.6C351.543 75.4 358.903 82.2267 364.343 91.08C369.783 99.8267 372.503 109.8 372.503 121C372.503 132.2 369.783 142.227 364.343 151.08C358.903 159.827 351.543 166.6 342.263 171.4C333.089 176.2 323.063 178.6 312.183 178.6ZM312.183 165.8C320.716 165.8 328.503 163.933 335.543 160.2C342.689 156.467 348.343 151.187 352.503 144.36C356.769 137.533 358.903 129.747 358.903 121C358.903 112.253 356.769 104.467 352.503 97.64C348.343 90.8133 342.689 85.5333 335.543 81.8C328.503 78.0667 320.716 76.2 312.183 76.2C303.649 76.2 295.809 78.0667 288.663 81.8C281.623 85.5333 275.969 90.8133 271.703 97.64C267.543 104.467 265.463 112.253 265.463 121C265.463 129.747 267.543 137.533 271.703 144.36C275.969 151.187 281.623 156.467 288.663 160.2C295.809 163.933 303.649 165.8 312.183 165.8ZM425.438 177V77.8H383.038V65H481.438V77.8H439.038V177H425.438ZM488.581 137.48V125.48H546.661V137.48H488.581ZM569.806 177V65H583.406V164.2H648.366V177H569.806ZM665.9 177V65H747.98V77.8H679.5V114.12H744.3V126.92H679.5V164.2H747.98V177H665.9ZM758.394 177L807.354 65H826.714L875.674 177H860.954L818.714 79.4H815.354L773.114 177H758.394ZM782.554 148.68V135.88H851.514V148.68H782.554ZM890.9 177V65H932.34C944.073 65 954.633 67.4 964.02 72.2C973.407 77 980.713 83.6667 985.94 92.2C991.273 100.627 993.94 110.227 993.94 121C993.94 131.773 991.273 141.427 985.94 149.96C980.713 158.387 973.407 165 964.02 169.8C954.633 174.6 944.073 177 932.34 177H890.9ZM932.34 164.2C941.3 164.2 949.407 162.387 956.66 158.76C964.02 155.133 969.78 150.067 973.94 143.56C978.207 136.947 980.34 129.427 980.34 121C980.34 112.573 978.207 105.107 973.94 98.6C969.78 91.9867 964.02 86.8667 956.66 83.24C949.407 79.6133 941.3 77.8 932.34 77.8H904.5V164.2H932.34ZM1059.87 178.6C1049.42 178.6 1040.46 177.107 1032.99 174.12C1025.63 171.133 1020.08 167.08 1016.35 161.96C1012.62 156.733 1010.75 150.813 1010.75 144.2H1024.35C1024.35 148.147 1025.63 151.773 1028.19 155.08C1030.75 158.387 1034.7 161 1040.03 162.92C1045.36 164.84 1051.98 165.8 1059.87 165.8C1070.96 165.8 1079.07 164.093 1084.19 160.68C1089.42 157.267 1092.03 152.68 1092.03 146.92C1092.03 141.907 1090.16 138.013 1086.43 135.24C1082.8 132.467 1076.88 130.333 1068.67 128.84L1045.31 124.36C1038.38 122.973 1032.56 121.053 1027.87 118.6C1023.18 116.04 1019.6 112.84 1017.15 109C1014.7 105.16 1013.47 100.52 1013.47 95.08C1013.47 89.2133 1015.18 83.88 1018.59 79.08C1022 74.28 1027.02 70.4933 1033.63 67.72C1040.24 64.84 1048.14 63.4 1057.31 63.4C1067.23 63.4 1075.76 64.8933 1082.91 67.88C1090.06 70.8667 1095.44 74.9733 1099.07 80.2C1102.8 85.32 1104.67 91.1867 1104.67 97.8H1091.07C1091.07 93.8533 1089.79 90.28 1087.23 87.08C1084.78 83.7733 1080.99 81.16 1075.87 79.24C1070.86 77.2133 1064.67 76.2 1057.31 76.2C1047.28 76.2 1039.71 77.9067 1034.59 81.32C1029.58 84.6267 1027.07 89.2133 1027.07 95.08C1027.07 99.6667 1028.83 103.347 1032.35 106.12C1035.98 108.787 1041.68 110.867 1049.47 112.36L1069.31 116.04C1077.84 117.64 1084.78 119.773 1090.11 122.44C1095.44 125.107 1099.34 128.467 1101.79 132.52C1104.35 136.467 1105.63 141.267 1105.63 146.92C1105.63 153.107 1103.87 158.6 1100.35 163.4C1096.94 168.2 1091.76 171.933 1084.83 174.6C1078 177.267 1069.68 178.6 1059.87 178.6Z" fill="#FF2400"/>
<path d="M1150.39 108.055V82.25H1163.3C1164.85 82.25 1166.23 82.5941 1167.46 83.2822C1168.71 83.9457 1169.68 84.8796 1170.36 86.0839C1171.08 87.2881 1171.43 88.6643 1171.43 90.2126C1171.43 91.7609 1171.08 93.1372 1170.36 94.3414C1169.68 95.5456 1168.71 96.4918 1167.46 97.1799C1166.23 97.8435 1164.85 98.1752 1163.3 98.1752H1159.7V97.438L1172.06 108.055H1167.79L1156.32 98.1752H1153.52V108.055H1150.39ZM1163.3 95.2261C1164.28 95.2261 1165.15 95.0295 1165.91 94.6363C1166.67 94.2185 1167.26 93.6287 1167.68 92.8668C1168.1 92.105 1168.3 91.2202 1168.3 90.2126C1168.3 89.205 1168.1 88.3203 1167.68 87.5584C1167.26 86.7966 1166.67 86.219 1165.91 85.8258C1165.15 85.408 1164.28 85.1991 1163.3 85.1991H1153.52V95.2261H1163.3Z" fill="#FF2400"/>
<path d="M1160.31 124.236C1154.75 124.236 1149.6 123.008 1144.86 120.55C1140.18 118.092 1136.44 114.625 1133.66 110.146C1130.89 105.613 1129.5 100.48 1129.5 94.7451C1129.5 89.0107 1130.89 83.9044 1133.66 79.4261C1136.44 74.8932 1140.18 71.3979 1144.86 68.9403C1149.6 66.4827 1154.75 65.2539 1160.31 65.2539C1165.86 65.2539 1170.99 66.4827 1175.67 68.9403C1180.41 71.3979 1184.17 74.8932 1186.95 79.4261C1189.73 83.9044 1191.12 89.0107 1191.12 94.7451C1191.12 100.48 1189.73 105.613 1186.95 110.146C1184.17 114.625 1180.41 118.092 1175.67 120.55C1170.99 123.008 1165.86 124.236 1160.31 124.236ZM1160.31 117.683C1164.67 117.683 1168.64 116.727 1172.24 114.816C1175.89 112.904 1178.78 110.201 1180.9 106.705C1183.08 103.21 1184.17 99.2236 1184.17 94.7451C1184.17 90.2668 1183.08 86.2801 1180.9 82.7848C1178.78 79.2895 1175.89 76.5862 1172.24 74.6747C1168.64 72.7633 1164.67 71.8075 1160.31 71.8075C1155.95 71.8075 1151.94 72.7633 1148.29 74.6747C1144.7 76.5862 1141.81 79.2895 1139.63 82.7848C1137.51 86.2801 1136.44 90.2668 1136.44 94.7451C1136.44 99.2236 1137.51 103.21 1139.63 106.705C1141.81 110.201 1144.7 112.904 1148.29 114.816C1151.94 116.727 1155.95 117.683 1160.31 117.683Z" fill="#FF2400"/>
<path d="M55.9625 192V43.2H92.2825V55.2H68.7625V180H92.2825V192H55.9625Z" fill="#FF2400"/>
<path d="M1235.04 43L1235.04 191.8L1198.72 191.8L1198.72 179.8L1222.24 179.8L1222.24 55L1198.72 55L1198.72 43L1235.04 43Z" fill="#FF2400"/>
<path d="M126.534 54V32.3H134.656C136.495 32.3 138.076 32.5997 139.399 33.199C140.722 33.7777 141.734 34.625 142.437 35.741C143.16 36.8363 143.522 38.1693 143.522 39.74C143.522 41.2693 143.16 42.592 142.437 43.708C141.734 44.8033 140.722 45.6507 139.399 46.25C138.076 46.8493 136.495 47.149 134.656 47.149H127.805L128.828 46.064V54H126.534ZM128.828 46.25L127.805 45.134H134.594C136.764 45.134 138.407 44.669 139.523 43.739C140.66 42.7883 141.228 41.4553 141.228 39.74C141.228 38.004 140.66 36.6607 139.523 35.71C138.407 34.7593 136.764 34.284 134.594 34.284H127.805L128.828 33.199V46.25ZM143.92 54L153.84 32.3H156.103L166.023 54H163.605L154.491 33.633H155.421L146.307 54H143.92ZM147.826 48.203L148.508 46.343L161.125 46.343L161.807 48.203L147.826 48.203ZM169.613 54V32.3H177.735C179.574 32.3 181.155 32.5997 182.478 33.199C183.801 33.7777 184.813 34.625 185.516 35.741C186.239 36.8363 186.601 38.1693 186.601 39.74C186.601 41.2693 186.239 42.592 185.516 43.708C184.813 44.8033 183.801 45.6507 182.478 46.25C181.155 46.8287 179.574 47.118 177.735 47.118H170.884L171.907 46.064V54H169.613ZM184.431 54L178.851 46.126H181.331L186.942 54H184.431ZM171.907 46.25L170.884 45.165H177.673C179.843 45.165 181.486 44.6897 182.602 43.739C183.739 42.7883 184.307 41.4553 184.307 39.74C184.307 38.004 183.739 36.6607 182.602 35.71C181.486 34.7593 179.843 34.284 177.673 34.284H170.884L171.907 33.199V46.25ZM195.929 54V34.284H188.303V32.3H205.849V34.284H198.223V54H195.929ZM209.513 54V32.3H211.404L226.377 51.148H225.385V32.3H227.648V54H225.757L210.815 35.152H211.807V54H209.513ZM236.777 42.003L248.247 42.003V43.956L236.777 43.956V42.003ZM237.025 52.016L250.076 52.016V54L234.731 54V32.3L249.611 32.3V34.284L237.025 34.284V52.016ZM255.469 54V32.3H263.591C265.43 32.3 267.011 32.5997 268.334 33.199C269.656 33.7777 270.669 34.625 271.372 35.741C272.095 36.8363 272.457 38.1693 272.457 39.74C272.457 41.2693 272.095 42.592 271.372 43.708C270.669 44.8033 269.656 45.6507 268.334 46.25C267.011 46.8287 265.43 47.118 263.591 47.118H256.74L257.763 46.064V54H255.469ZM270.287 54L264.707 46.126L267.187 46.126L272.798 54H270.287ZM257.763 46.25L256.74 45.165H263.529C265.699 45.165 267.342 44.6897 268.458 43.739C269.594 42.7883 270.163 41.4553 270.163 39.74C270.163 38.004 269.594 36.6607 268.458 35.71C267.342 34.7593 265.699 34.284 263.529 34.284H256.74L257.763 33.199V46.25ZM283.854 54.186C282.242 54.186 280.692 53.9277 279.204 53.411C277.737 52.8737 276.6 52.1917 275.794 51.365L276.693 49.598C277.458 50.342 278.481 50.9723 279.762 51.489C281.064 51.985 282.428 52.233 283.854 52.233C285.218 52.233 286.324 52.0677 287.171 51.737C288.039 51.3857 288.669 50.9207 289.062 50.342C289.475 49.7633 289.682 49.1227 289.682 48.42C289.682 47.5727 289.434 46.8907 288.938 46.374C288.463 45.8573 287.832 45.4543 287.047 45.165C286.262 44.855 285.394 44.5863 284.443 44.359C283.492 44.1317 282.542 43.894 281.591 43.646C280.64 43.3773 279.762 43.026 278.956 42.592C278.171 42.158 277.53 41.5897 277.034 40.887C276.559 40.1637 276.321 39.2233 276.321 38.066C276.321 36.9913 276.6 36.0097 277.158 35.121C277.737 34.2117 278.615 33.4883 279.793 32.951C280.971 32.393 282.48 32.114 284.319 32.114C285.538 32.114 286.747 32.2897 287.946 32.641C289.145 32.9717 290.178 33.4367 291.046 34.036L290.271 35.865C289.341 35.245 288.349 34.7903 287.295 34.501C286.262 34.2117 285.259 34.067 284.288 34.067C282.986 34.067 281.911 34.2427 281.064 34.594C280.217 34.9453 279.586 35.4207 279.173 36.02C278.78 36.5987 278.584 37.26 278.584 38.004C278.584 38.8513 278.822 39.5333 279.297 40.05C279.793 40.5667 280.434 40.9697 281.219 41.259C282.025 41.5483 282.903 41.8067 283.854 42.034C284.805 42.2613 285.745 42.5093 286.675 42.778C287.626 43.0467 288.494 43.398 289.279 43.832C290.085 44.2453 290.726 44.8033 291.201 45.506C291.697 46.2087 291.945 47.1283 291.945 48.265C291.945 49.319 291.656 50.3007 291.077 51.21C290.498 52.0987 289.61 52.822 288.411 53.38C287.233 53.9173 285.714 54.186 283.854 54.186Z" fill="#FF2401"/>
<defs>
<linearGradient id="paint0_linear_1705_794" x1="431.5" y1="118" x2="588" y2="118" gradientUnits="userSpaceOnUse">
<stop offset="0.07" stop-color="#FF6700"/>
<stop offset="1" stop-color="#00CF3C"/>
</linearGradient>
<linearGradient id="paint1_linear_1705_794" x1="431.5" y1="118" x2="588" y2="118" gradientUnits="userSpaceOnUse">
<stop offset="0.07" stop-color="#FF6700"/>
<stop offset="1" stop-color="#00CF3C"/>
</linearGradient>
</defs>
</svg>
