<svg width="95" height="13" viewBox="0 0 95 13" fill="none" xmlns="http://www.w3.org/2000/svg">
<path d="M0.44 12V0.799999H1.8V5.712H9.112V0.799999H10.472V12H9.112V6.992H1.8V12H0.44ZM18.8183 12.16C17.7303 12.16 16.7223 11.92 15.7943 11.44C14.8769 10.96 14.1463 10.2827 13.6023 9.408C13.0583 8.52267 12.7863 7.52 12.7863 6.4C12.7863 5.28 13.0583 4.28267 13.6023 3.408C14.1463 2.52267 14.8769 1.84 15.7943 1.36C16.7223 0.879999 17.7303 0.639999 18.8183 0.639999C19.9063 0.639999 20.9089 0.879999 21.8263 1.36C22.7543 1.84 23.4903 2.52267 24.0343 3.408C24.5783 4.28267 24.8503 5.28 24.8503 6.4C24.8503 7.52 24.5783 8.52267 24.0343 9.408C23.4903 10.2827 22.7543 10.96 21.8263 11.44C20.9089 11.92 19.9063 12.16 18.8183 12.16ZM18.8183 10.88C19.6716 10.88 20.4503 10.6933 21.1543 10.32C21.8689 9.94667 22.4343 9.41867 22.8503 8.736C23.2769 8.05333 23.4903 7.27467 23.4903 6.4C23.4903 5.52533 23.2769 4.74667 22.8503 4.064C22.4343 3.38133 21.8689 2.85333 21.1543 2.48C20.4503 2.10667 19.6716 1.92 18.8183 1.92C17.9649 1.92 17.1809 2.10667 16.4663 2.48C15.7623 2.85333 15.1969 3.38133 14.7703 4.064C14.3543 4.74667 14.1463 5.52533 14.1463 6.4C14.1463 7.27467 14.3543 8.05333 14.7703 8.736C15.1969 9.41867 15.7623 9.94667 16.4663 10.32C17.1809 10.6933 17.9649 10.88 18.8183 10.88ZM30.1438 12V2.08H25.9038V0.799999H35.7438V2.08H31.5038V12H30.1438ZM41.1744 12V0.799999H42.5344V10.72H49.0304V12H41.1744ZM50.7838 12V0.799999H58.9918V2.08H52.1438V5.712H58.6238V6.992H52.1438V10.72H58.9918V12H50.7838ZM60.0331 12L64.9291 0.799999H66.8651L71.7611 12H70.2891L66.0651 2.24H65.7291L61.5051 12H60.0331ZM62.4491 9.168V7.888H69.3451V9.168H62.4491ZM73.2838 12V0.799999H77.4278C78.6011 0.799999 79.6571 1.04 80.5958 1.52C81.5344 2 82.2651 2.66667 82.7878 3.52C83.3211 4.36267 83.5878 5.32267 83.5878 6.4C83.5878 7.47733 83.3211 8.44267 82.7878 9.296C82.2651 10.1387 81.5344 10.8 80.5958 11.28C79.6571 11.76 78.6011 12 77.4278 12H73.2838ZM77.4278 10.72C78.3238 10.72 79.1344 10.5387 79.8598 10.176C80.5958 9.81333 81.1718 9.30667 81.5878 8.656C82.0144 7.99467 82.2278 7.24267 82.2278 6.4C82.2278 5.55733 82.0144 4.81067 81.5878 4.16C81.1718 3.49867 80.5958 2.98667 79.8598 2.624C79.1344 2.26133 78.3238 2.08 77.4278 2.08H74.6438V10.72H77.4278ZM90.1808 12.16C89.1354 12.16 88.2394 12.0107 87.4928 11.712C86.7568 11.4133 86.2021 11.008 85.8288 10.496C85.4554 9.97333 85.2688 9.38133 85.2688 8.72H86.6288C86.6288 9.11467 86.7568 9.47733 87.0128 9.808C87.2688 10.1387 87.6634 10.4 88.1968 10.592C88.7301 10.784 89.3914 10.88 90.1808 10.88C91.2901 10.88 92.1008 10.7093 92.6128 10.368C93.1354 10.0267 93.3968 9.568 93.3968 8.992C93.3968 8.49067 93.2101 8.10133 92.8368 7.824C92.4741 7.54667 91.8821 7.33333 91.0608 7.184L88.7248 6.736C88.0314 6.59733 87.4501 6.40533 86.9808 6.16C86.5114 5.904 86.1541 5.584 85.9088 5.2C85.6634 4.816 85.5408 4.352 85.5408 3.808C85.5408 3.22133 85.7114 2.688 86.0528 2.208C86.3941 1.728 86.8954 1.34933 87.5568 1.072C88.2181 0.783999 89.0074 0.639999 89.9248 0.639999C90.9168 0.639999 91.7701 0.789333 92.4848 1.088C93.1994 1.38667 93.7381 1.79733 94.1008 2.32C94.4741 2.832 94.6608 3.41867 94.6608 4.08H93.3008C93.3008 3.68533 93.1728 3.328 92.9167 3.008C92.6714 2.67733 92.2928 2.416 91.7808 2.224C91.2794 2.02133 90.6608 1.92 89.9248 1.92C88.9221 1.92 88.1648 2.09067 87.6528 2.432C87.1514 2.76267 86.9008 3.22133 86.9008 3.808C86.9008 4.26667 87.0768 4.63467 87.4288 4.912C87.7914 5.17867 88.3621 5.38667 89.1408 5.536L91.1248 5.904C91.9781 6.064 92.6714 6.27733 93.2048 6.544C93.7381 6.81067 94.1274 7.14667 94.3728 7.552C94.6288 7.94667 94.7568 8.42667 94.7568 8.992C94.7568 9.61067 94.5808 10.16 94.2288 10.64C93.8874 11.12 93.3701 11.4933 92.6768 11.76C91.9941 12.0267 91.1621 12.16 90.1808 12.16Z" fill="white"/>
</svg>
