<svg width="36" height="36" viewBox="0 0 36 36" fill="none" xmlns="http://www.w3.org/2000/svg">
<path d="M34.025 20.7625C34.1375 19.8625 34.25 19.075 34.25 18.175C34.25 9.17498 26.9375 1.74998 17.825 1.74998C16.925 1.74998 16.1375 1.86248 15.2375 1.97498C13.775 1.18748 12.2 0.849976 10.625 0.849976C5 0.849976 0.5 5.34998 0.5 10.975C0.5 12.55 0.8375 14.125 1.625 15.5875C1.5125 16.4875 1.4 17.275 1.4 18.175C1.4 27.175 8.7125 34.6 17.825 34.6C18.725 34.6 19.5125 34.4875 20.4125 34.375C21.875 35.05 23.45 35.5 25.025 35.5C30.65 35.5 35.15 31 35.15 25.375C35.15 23.8 34.7 22.225 34.025 20.7625ZM24.6875 24.1375C24.35 24.8125 23.9 25.375 23.225 25.825C22.55 26.275 21.875 26.6125 20.975 26.8375C20.075 27.0625 19.0625 27.175 17.9375 27.175C15.575 27.175 13.6625 26.6125 12.3125 25.6C11.525 24.925 10.85 24.1375 10.5125 23.125C10.0625 22.225 10.85 21.1 11.975 21.1H12.3125C12.9875 21.1 13.6625 21.55 13.8875 22.1125C14.1125 22.675 14.45 23.125 14.9 23.4625C15.575 24.025 16.5875 24.25 17.825 24.25C18.95 24.25 19.85 24.025 20.525 23.6875C21.2 23.35 21.5375 22.675 21.5375 22C21.5375 21.6625 21.425 21.4375 21.3125 21.2125C21.2 20.9875 20.8625 20.7625 20.6375 20.65C20.3 20.425 19.9625 20.3125 19.4 20.2C18.95 20.0875 18.3875 19.8625 17.7125 19.75L17.0375 19.525C16.25 19.3 15.35 19.075 14.675 18.85C13.8875 18.625 13.2125 18.2875 12.65 17.95C12.0875 17.6125 11.6375 17.1625 11.3 16.4875C10.9625 15.925 10.85 15.1375 10.85 14.2375C10.85 13.3375 11.075 12.55 11.4125 11.875C11.75 11.2 12.3125 10.6375 12.875 10.3C13.55 9.84998 14.225 9.51248 15.125 9.39998C15.9125 9.17498 16.8125 9.06248 17.825 9.06248C18.95 9.06248 19.85 9.17498 20.75 9.39998C21.65 9.62498 22.325 9.96248 23 10.525C23.675 10.975 24.125 11.5375 24.4625 12.325C25.025 13.3375 24.2375 14.6875 23 14.6875H22.6625C21.9875 14.6875 21.425 14.35 21.0875 13.7875C20.8625 13.45 20.6375 13.1125 20.3 12.775C19.7375 12.325 18.8375 12.1 17.825 12.1C16.8125 12.1 16.025 12.325 15.4625 12.6625C14.9 13 14.675 13.5625 14.675 14.125C14.675 14.4625 14.7875 14.6875 14.9 14.9125C15.0125 15.1375 15.2375 15.3625 15.575 15.475C15.9125 15.5875 16.25 15.8125 16.7 15.925C17.15 16.0375 17.7125 16.15 18.3875 16.375C19.0625 16.4875 19.625 16.7125 20.3 16.825C20.8625 16.9375 21.425 17.1625 21.9875 17.275C22.55 17.5 23 17.725 23.45 17.95C23.9 18.175 24.2375 18.5125 24.575 18.85C24.9125 19.1875 25.1375 19.6375 25.25 20.0875C25.475 20.5375 25.475 21.2125 25.475 21.8875C25.25 22.675 25.025 23.4625 24.6875 24.1375Z" fill="white"/>
</svg>
